<svg xmlns="http://www.w3.org/2000/svg" xmlns:xlink="http://www.w3.org/1999/xlink" width="86" height="86" viewBox="0 0 86 86">
  <defs>
    <clipPath id="clip-svg_jetvision4">
      <rect width="86" height="86"/>
    </clipPath>
  </defs>
  <g id="svg_jetvision4" clip-path="url(#clip-svg_jetvision4)">
    <circle id="Ellipse_121" data-name="Ellipse 121" cx="43" cy="43" r="43" fill="#f4f4ff"/>
    <g id="truck-delivery" transform="translate(27.074 30.259)">
      <circle id="Ellipse_123" data-name="Ellipse 123" cx="3" cy="3" r="3" transform="translate(20.926 18.741)" fill="none" stroke="#27279b" stroke-width="2"/>
      <circle id="Ellipse_124" data-name="Ellipse 124" cx="3" cy="3" r="3" transform="translate(4.926 18.741)" fill="none" stroke="#27279b" stroke-width="2"/>
      <path id="Path_260" data-name="Path 260" d="M6.778,26.252c-1.747-.087-2.836-.347-3.612-1.122s-1.035-1.865-1.122-3.612m11.1,4.778H22.7m6.37-.044c1.747-.087,2.836-.347,3.612-1.122,1.166-1.166,1.166-3.043,1.166-6.8V15.148H26.367a7.967,7.967,0,0,1-2.258-.156,3.185,3.185,0,0,1-2.045-2.045,7.967,7.967,0,0,1-.156-2.258A11.955,11.955,0,0,0,21.674,7.3a4.778,4.778,0,0,0-3.067-3.068A11.953,11.953,0,0,0,15.219,4H2" transform="translate(-2 -4)" fill="none" stroke="#27279b" stroke-linecap="round" stroke-linejoin="round" stroke-width="2"/>
      <path id="Path_261" data-name="Path 261" d="M2,8h9.556" transform="translate(-2 -1.63)" fill="none" stroke="#27279b" stroke-linecap="round" stroke-linejoin="round" stroke-width="2"/>
      <path id="Path_262" data-name="Path 262" d="M2,11H8.37" transform="translate(-2 0.148)" fill="none" stroke="#27279b" stroke-linecap="round" stroke-linejoin="round" stroke-width="2"/>
      <path id="Path_263" data-name="Path 263" d="M14.5,6h2.9c2.318,0,3.477,0,4.42.563s1.493,1.584,2.591,3.624l2.033,3.775" transform="translate(5.407 -2.815)" fill="none" stroke="#27279b" stroke-linecap="round" stroke-linejoin="round" stroke-width="2"/>
    </g>
  </g>
</svg>
