<svg xmlns="http://www.w3.org/2000/svg" xmlns:xlink="http://www.w3.org/1999/xlink" width="86" height="86" viewBox="0 0 86 86">
  <defs>
    <clipPath id="clip-svg_jetvision5">
      <rect width="86" height="86"/>
    </clipPath>
  </defs>
  <g id="svg_jetvision5" clip-path="url(#clip-svg_jetvision5)">
    <circle id="Ellipse_121" data-name="Ellipse 121" cx="43" cy="43" r="43" fill="#f4f4ff"/>
    <g id="user-group" transform="translate(25.481 30.259)">
      <path id="Path_264" data-name="Path 264" d="M22.418,25.111a3.977,3.977,0,0,0,2.995-1.8c1.745-2.15-1.12-3.867-2.212-4.709a6.926,6.926,0,0,0-3.608-1.453M18,13.963A3.981,3.981,0,0,0,18,6" transform="translate(9.074 -2.815)" fill="none" stroke="#27279b" stroke-linecap="round" stroke-width="2"/>
      <path id="Path_265" data-name="Path 265" d="M4.545,25.111a3.976,3.976,0,0,1-2.995-1.8c-1.745-2.15,1.12-3.867,2.212-4.709A6.925,6.925,0,0,1,7.37,17.148m.8-3.185A3.981,3.981,0,1,1,8.167,6" transform="translate(-1 -2.815)" fill="none" stroke="#27279b" stroke-linecap="round" stroke-width="2"/>
      <path id="Path_266" data-name="Path 266" d="M9.615,15.77C7.988,16.776,3.721,18.83,6.32,21.4a6.3,6.3,0,0,0,4.461,2.154H20.923A6.3,6.3,0,0,0,25.384,21.4c2.6-2.571-1.668-4.626-3.3-5.632A11.875,11.875,0,0,0,9.615,15.77Z" transform="translate(1.667 1.926)" fill="none" stroke="#27279b" stroke-linecap="round" stroke-linejoin="round" stroke-width="2"/>
      <path id="Path_267" data-name="Path 267" d="M19.648,9.574A5.574,5.574,0,1,1,14.074,4,5.574,5.574,0,0,1,19.648,9.574Z" transform="translate(3.444 -4)" fill="none" stroke="#27279b" stroke-width="2"/>
    </g>
  </g>
</svg>
