<svg xmlns="http://www.w3.org/2000/svg" xmlns:xlink="http://www.w3.org/1999/xlink" width="86" height="86" viewBox="0 0 86 86">
  <defs>
    <clipPath id="clip-svg_jetvision2">
      <rect width="86" height="86"/>
    </clipPath>
  </defs>
  <g id="svg_jetvision2" clip-path="url(#clip-svg_jetvision2)">
    <circle id="Ellipse_121" data-name="Ellipse 121" cx="43" cy="43" r="43" fill="#f4f4ff"/>
    <g id="discover-circle" transform="translate(27.074 27.074)">
      <path id="Path_253" data-name="Path 253" d="M33.852,17.926A15.926,15.926,0,1,0,17.926,33.852,15.926,15.926,0,0,0,33.852,17.926Z" transform="translate(-2 -2)" fill="none" stroke="#27279b" stroke-width="2"/>
      <path id="Path_254" data-name="Path 254" d="M15.6,9.067l4.65-1.55c1.411-.47,2.117-.706,2.49-.333s.137,1.078-.333,2.49l-1.55,4.65c-.8,2.405-1.2,3.608-2.065,4.47s-2.065,1.263-4.47,2.065l-4.65,1.55c-1.411.471-2.117.706-2.49.333s-.137-1.078.333-2.49l1.55-4.65c.8-2.405,1.2-3.608,2.065-4.47S13.2,9.869,15.6,9.067Z" transform="translate(0.963 0.963)" fill="none" stroke="#27279b" stroke-linecap="round" stroke-linejoin="round" stroke-width="2"/>
      <path id="Path_255" data-name="Path 255" d="M12,12l-.01.01" transform="translate(3.922 3.926)" fill="none" stroke="#27279b" stroke-linecap="round" stroke-linejoin="round" stroke-width="2"/>
    </g>
  </g>
</svg>
