<svg xmlns="http://www.w3.org/2000/svg" xmlns:xlink="http://www.w3.org/1999/xlink" width="86" height="86" viewBox="0 0 86 86">
  <defs>
    <clipPath id="clip-svg_jetvision3">
      <rect width="86" height="86"/>
    </clipPath>
  </defs>
  <g id="svg_jetvision3" clip-path="url(#clip-svg_jetvision3)">
    <circle id="Ellipse_121" data-name="Ellipse 121" cx="43" cy="43" r="43" fill="#f4f4ff"/>
    <g id="subnode-add" transform="translate(30.259 27.074)">
      <path id="Path_256" data-name="Path 256" d="M18.648,26.315H17.056c-4.5,0-6.757,0-8.156-1.4s-1.4-3.652-1.4-8.156V13.574M7.5,8v5.574m0,0h7.167" transform="translate(-1.13 1.555)" fill="none" stroke="#27279b" stroke-linecap="round" stroke-linejoin="round" stroke-width="2"/>
      <path id="Path_257" data-name="Path 257" d="M14.5,20.981c0-1.877,0-2.815.56-3.4S16.52,17,18.322,17h1.911c1.8,0,2.7,0,3.262.583s.56,1.522.56,3.4,0,2.815-.56,3.4-1.461.583-3.262.583H18.322c-1.8,0-2.7,0-3.262-.583S14.5,22.858,14.5,20.981Z" transform="translate(3.019 6.889)" fill="none" stroke="#27279b" stroke-width="2"/>
      <path id="Path_258" data-name="Path 258" d="M7.14,2H12.6c3.3,0,3.64,1.768,3.64,4.778s-.336,4.778-3.64,4.778H7.14c-3.3,0-3.64-1.768-3.64-4.778S3.836,2,7.14,2Z" transform="translate(-3.5 -2)" fill="none" stroke="#27279b" stroke-width="2"/>
      <path id="Path_259" data-name="Path 259" d="M18.981,9v7.963m3.981-3.981H15" transform="translate(3.315 2.148)" fill="none" stroke="#27279b" stroke-linecap="round" stroke-linejoin="round" stroke-width="2"/>
    </g>
  </g>
</svg>
